<?xml version="1.0" encoding="UTF-8"?>
<svg width="1200" height="800" xmlns="http://www.w3.org/2000/svg">
  <defs>
    <style>
      .phase-box { fill: #e1f5fe; stroke: #01579b; stroke-width: 2; }
      .activity-box { fill: #f3e5f5; stroke: #4a148c; stroke-width: 1; }
      .text { font-family: Arial, sans-serif; font-size: 12px; text-anchor: middle; }
      .title-text { font-family: Arial, sans-serif; font-size: 14px; font-weight: bold; text-anchor: middle; }
      .arrow { stroke: #333; stroke-width: 2; fill: none; marker-end: url(#arrowhead); }
    </style>
    <marker id="arrowhead" markerWidth="10" markerHeight="7" refX="9" refY="3.5" orient="auto">
      <polygon points="0 0, 10 3.5, 0 7" fill="#333" />
    </marker>
  </defs>
  
  <!-- Title -->
  <text x="600" y="30" class="title-text" font-size="18">Six Sigma DMAIC Process Flow</text>
  
  <!-- Main Process Flow -->
  <rect x="50" y="80" width="120" height="60" rx="10" class="phase-box" />
  <text x="110" y="105" class="title-text">Define</text>
  <text x="110" y="120" class="text">Phase</text>
  
  <rect x="250" y="80" width="120" height="60" rx="10" class="phase-box" />
  <text x="310" y="105" class="title-text">Measure</text>
  <text x="310" y="120" class="text">Phase</text>
  
  <rect x="450" y="80" width="120" height="60" rx="10" class="phase-box" />
  <text x="510" y="105" class="title-text">Analyze</text>
  <text x="510" y="120" class="text">Phase</text>
  
  <rect x="650" y="80" width="120" height="60" rx="10" class="phase-box" />
  <text x="710" y="105" class="title-text">Improve</text>
  <text x="710" y="120" class="text">Phase</text>
  
  <rect x="850" y="80" width="120" height="60" rx="10" class="phase-box" />
  <text x="910" y="105" class="title-text">Control</text>
  <text x="910" y="120" class="text">Phase</text>
  
  <!-- Arrows between phases -->
  <line x1="170" y1="110" x2="250" y2="110" class="arrow" />
  <line x1="370" y1="110" x2="450" y2="110" class="arrow" />
  <line x1="570" y1="110" x2="650" y2="110" class="arrow" />
  <line x1="770" y1="110" x2="850" y2="110" class="arrow" />
  
  <!-- Continuous Improvement Loop -->
  <path d="M 970 110 Q 1000 110 1000 200 Q 1000 290 970 290" class="arrow" />
  <path d="M 50 290 Q 20 290 20 200 Q 20 110 50 110" class="arrow" />
  
  <!-- Activity Details -->
  <rect x="30" y="200" width="160" height="40" rx="5" class="activity-box" />
  <text x="110" y="220" class="text">Problem Identification</text>
  <text x="110" y="235" class="text">Stakeholder Analysis</text>
  
  <rect x="230" y="200" width="160" height="40" rx="5" class="activity-box" />
  <text x="310" y="220" class="text">Data Collection</text>
  <text x="310" y="235" class="text">Process Mapping</text>
  
  <rect x="430" y="200" width="160" height="40" rx="5" class="activity-box" />
  <text x="510" y="220" class="text">Root Cause Analysis</text>
  <text x="510" y="235" class="text">Statistical Analysis</text>
  
  <rect x="630" y="200" width="160" height="40" rx="5" class="activity-box" />
  <text x="710" y="220" class="text">Solution Design</text>
  <text x="710" y="235" class="text">Pilot Testing</text>
  
  <rect x="830" y="200" width="160" height="40" rx="5" class="activity-box" />
  <text x="910" y="220" class="text">Monitoring Systems</text>
  <text x="910" y="235" class="text">Documentation</text>
  
  <!-- Legend -->
  <rect x="50" y="300" width="200" height="100" rx="5" fill="#f5f5f5" stroke="#ccc" />
  <text x="150" y="320" class="title-text">Legend</text>
  <rect x="70" y="340" width="20" height="15" class="phase-box" />
  <text x="100" y="352" class="text">Main Process Phases</text>
  <rect x="70" y="360" width="20" height="15" class="activity-box" />
  <text x="100" y="372" class="text">Key Activities</text>
  <line x1="70" y1="385" x2="90" y2="385" class="arrow" />
  <text x="100" y="390" class="text">Process Flow</text>
</svg>